<?xml version="1.0" encoding="UTF-8"?>
<!DOCTYPE svg PUBLIC "-//W3C//DTD SVG 1.1//EN" "http://www.w3.org/Graphics/SVG/1.1/DTD/svg11.dtd">
<!-- Creator: CorelDRAW 2019 -->
<svg xmlns="http://www.w3.org/2000/svg" xml:space="preserve" width="300px" height="300px" version="1.1" style="shape-rendering:geometricPrecision; text-rendering:geometricPrecision; image-rendering:optimizeQuality; fill-rule:evenodd; clip-rule:evenodd"
viewBox="0 0 436.98 436.98"
 xmlns:xlink="http://www.w3.org/1999/xlink"
 xmlns:xodm="http://www.corel.com/coreldraw/odm/2003">
 <defs>
  <style type="text/css">
   <![CDATA[
    .fil1 {fill:white}
    .fil0 {fill:url(#id0)}
   ]]>
  </style>
  <linearGradient id="id0" gradientUnits="userSpaceOnUse" x1="218.57" y1="-0.15" x2="218.57" y2="435.78">
   <stop offset="0" style="stop-opacity:1; stop-color:#4AC14B"/>
   <stop offset="1" style="stop-opacity:1; stop-color:#06853A"/>
  </linearGradient>
 </defs>
 <g id="Layer_x0020_1">
  <metadata id="CorelCorpID_0Corel-Layer"/>
  <g id="OBJECTS">
   <g>
    <path class="fil0" d="M364.93 436.98l-292.72 0c-39.7,0 -72.21,-32.51 -72.21,-72.21l0 -292.56c0,-39.7 32.51,-72.21 72.21,-72.21l292.57 0c39.69,0 72.2,32.51 72.2,72.21l0 292.57c0,39.84 -32.36,72.2 -72.05,72.2z"/>
    <g>
     <path class="fil1" d="M367.47 214.67c0,80.15 -65.46,145.16 -146.21,145.16 -25.61,0 -49.73,-6.59 -70.71,-18.12l-81.04 25.76 26.36 -77.9c-13.33,-21.87 -20.97,-47.49 -20.97,-74.9 0,-80.15 65.47,-145.16 146.21,-145.16 80.9,0.15 146.36,65.01 146.36,145.16l0 0zm-146.21 -121.94c-67.86,0 -122.99,54.68 -122.99,122.09 0,26.67 8.69,51.38 23.37,71.61l-15.43 45.24 47.19 -14.98c19.47,12.73 42.69,20.22 67.71,20.22 67.86,0 122.99,-54.68 122.99,-121.94 0.15,-67.56 -54.98,-122.24 -122.84,-122.24l0 0zm73.86 155.5c-0.9,-1.5 -3.3,-2.4 -6.89,-4.2 -3.6,-1.79 -21.28,-10.33 -24.57,-11.53 -3.3,-1.2 -5.69,-1.8 -8.09,1.8 -2.4,3.59 -9.29,11.53 -11.39,13.93 -2.1,2.39 -4.19,2.69 -7.79,0.9 -3.59,-1.8 -15.13,-5.55 -28.91,-17.68 -10.64,-9.44 -17.83,-21.12 -19.92,-24.57 -2.1,-3.59 -0.15,-5.54 1.49,-7.19 1.65,-1.65 3.6,-4.19 5.4,-6.29 1.79,-2.1 2.39,-3.6 3.59,-5.99 1.2,-2.4 0.6,-4.5 -0.3,-6.29 -0.9,-1.8 -8.09,-19.33 -11.08,-26.37 -3,-7.04 -6,-6.89 -8.09,-6.89 -2.1,0 -5.99,0.6 -5.99,0.6 0,0 -7.19,0.9 -10.49,4.49 -3.3,3.6 -12.58,12.14 -12.58,29.66 0,17.53 12.88,34.46 14.68,36.85 1.79,2.4 24.86,39.55 61.27,53.78 36.4,14.24 36.4,9.44 42.99,8.84 6.59,-0.6 21.27,-8.54 24.27,-16.92 3.3,-8.39 3.3,-15.58 2.4,-16.93l0 0zm0 0z"/>
    </g>
   </g>
  </g>
 </g>
</svg>
